<svg width="25" height="30" viewBox="0 0 25 30" fill="none" xmlns="http://www.w3.org/2000/svg">
<path d="M20.6781 15.0212C20.6724 14.7732 20.6068 14.624 20.5229 14.5168L15.9103 8.05962C15.6925 7.71027 15.1988 7.65481 14.8901 7.93857C14.5815 8.22233 14.5652 8.75269 14.8127 9.06855L18.4828 14.2139H5.06649C4.67446 14.2139 4.35693 14.5753 4.35693 15.0209C4.35693 15.4668 4.67472 15.828 5.06649 15.828H18.4828L14.8127 20.9733C14.5317 21.2922 14.6117 21.8513 14.9082 22.1514C15.1364 22.3822 15.7447 22.3087 15.9105 21.9822L20.5231 15.525C20.6432 15.3578 20.6798 15.2334 20.6783 15.0206L20.6781 15.0212Z" fill="#BB1005"/>
</svg>
