<svg width="28" height="28" viewBox="0 0 28 28" fill="none" xmlns="http://www.w3.org/2000/svg">
<path d="M21.9824 13.1452C21.7185 12.2449 21.3358 11.384 20.8444 10.5849C21.3791 10.138 21.7688 9.54244 21.9644 8.87352C22.2069 8.07648 22.173 7.22072 21.8682 6.4454C21.6697 5.99572 21.346 5.61276 20.9357 5.34212C20.5252 5.07165 20.0457 4.92508 19.5541 4.91992C19.0101 4.91977 18.4833 5.1118 18.0668 5.46196C17.6838 5.77774 17.1327 6.53276 16.6735 7.38384V7.384C15.8049 7.13025 14.9038 7.00509 13.999 7.01212C13.0949 7.00525 12.1946 7.1304 11.3266 7.384C10.8787 6.53276 10.3163 5.77792 9.93335 5.46212V5.46196C9.51695 5.11181 8.99023 4.91976 8.44599 4.91992C7.95535 4.92586 7.47663 5.07289 7.06723 5.34336C6.65771 5.61383 6.33459 5.99632 6.13659 6.4454C5.83377 7.21804 5.79987 8.07024 6.04018 8.8646C6.2358 9.53336 6.62566 10.129 7.16018 10.576C6.66878 11.3779 6.2869 12.2419 6.02454 13.1452C5.53626 14.7491 5.33234 16.1804 5.4197 17.4012C5.46798 18.4786 5.82734 19.5188 6.4547 20.3962C7.16034 21.3482 8.22658 22.056 9.62206 22.4951V22.495C11.0447 22.9043 12.5211 23.097 14.0013 23.0662C15.4822 23.097 16.9592 22.9045 18.3829 22.495C19.7783 22.047 20.8469 21.3481 21.5502 20.396V20.3962C22.1787 19.5186 22.539 18.4773 22.5873 17.399C22.6746 16.1804 22.4708 14.749 21.9826 13.1454L21.9824 13.1452ZM18.609 6.11364C18.8732 5.88645 19.2102 5.76161 19.5586 5.76192C19.8819 5.76708 20.1972 5.86333 20.4683 6.03973C20.7393 6.21598 20.955 6.46537 21.0908 6.75881C21.2995 7.29445 21.3413 7.88053 21.2105 8.44037C21.0799 9.00005 20.7827 9.50709 20.3583 9.89473C19.6072 8.92053 18.6172 8.15661 17.4844 7.67721C17.7787 7.10253 18.1578 6.57549 18.6089 6.11361L18.609 6.11364ZM6.92055 6.7588C7.05633 6.46537 7.27212 6.216 7.54319 6.03972C7.81413 5.86331 8.12943 5.76707 8.45271 5.76191C8.80131 5.7616 9.13835 5.88644 9.40255 6.11363C9.85239 6.57723 10.2299 7.10583 10.5226 7.68159C9.38959 8.16111 8.39975 8.92503 7.64863 9.89923C7.22411 9.51064 6.92723 9.00267 6.79723 8.44187C6.66723 7.88123 6.71036 7.29435 6.92051 6.75875L6.92055 6.7588ZM20.8758 19.892C19.7311 21.4354 17.4195 22.2194 14.0058 22.2194C10.5922 22.2194 8.28055 21.4353 7.14495 19.892C6.07415 18.4472 5.97119 16.2587 6.84261 13.396C7.96261 9.7224 10.3706 7.8608 14.0106 7.8608C17.6507 7.8608 20.0586 9.7222 21.1786 13.396C22.0477 16.2565 21.9447 18.4472 20.8739 19.892H20.8758Z" fill="black"/>
<path d="M11.3556 13.9425C11.5558 13.9425 11.7478 13.8629 11.8894 13.7212C12.0309 13.5797 12.1104 13.3878 12.1104 13.1875C12.1104 12.9873 12.0309 12.7953 11.8894 12.6537C11.7478 12.5121 11.5558 12.4326 11.3556 12.4326C11.1553 12.4326 10.9634 12.5121 10.8217 12.6537C10.6801 12.7953 10.6006 12.9873 10.6006 13.1875C10.6006 13.3878 10.6801 13.5797 10.8217 13.7212C10.9634 13.8629 11.1553 13.9425 11.3556 13.9425Z" fill="black"/>
<path d="M16.6532 13.9425C16.8535 13.9425 17.0454 13.8629 17.1871 13.7212C17.3287 13.5797 17.4082 13.3878 17.4082 13.1875C17.4082 12.9873 17.3286 12.7953 17.1871 12.6537C17.0454 12.5121 16.8535 12.4326 16.6532 12.4326C16.453 12.4326 16.261 12.5121 16.1194 12.6537C15.9778 12.7953 15.8983 12.9873 15.8983 13.1875C15.8983 13.3878 15.9778 13.5797 16.1194 13.7212C16.261 13.8629 16.453 13.9425 16.6532 13.9425Z" fill="black"/>
<path d="M17.2623 18.0734C17.1703 18.0491 17.0722 18.0637 16.9913 18.1137C16.9089 18.1634 16.85 18.2441 16.8278 18.3377C16.7683 18.5829 16.6409 18.8065 16.4603 18.9829C16.29 19.1271 16.0805 19.2173 15.8586 19.2417C15.6366 19.2659 15.4125 19.2234 15.215 19.1195C14.9833 19.0132 14.7883 18.8407 14.6544 18.624C14.5205 18.4071 14.4536 18.1555 14.4623 17.9008C14.7176 17.7574 15.2306 17.4169 15.2575 16.9735C15.2622 16.8603 15.2364 16.7482 15.1828 16.6485C15.1292 16.5488 15.0497 16.4653 14.9528 16.4067C14.6675 16.2278 14.3353 16.1382 13.9986 16.1491C13.4139 16.1491 12.7778 16.3732 12.6771 16.8457C12.5919 17.2399 12.8831 17.5938 13.5461 17.9007V17.9008C13.5546 18.1555 13.4875 18.4069 13.3536 18.6236C13.2199 18.8405 13.025 19.0129 12.7935 19.1194C12.596 19.2234 12.3719 19.2659 12.1499 19.2416C11.928 19.2173 11.7185 19.1271 11.5482 18.9829C11.3655 18.8065 11.2366 18.582 11.1763 18.3354C11.1293 18.143 10.9352 18.0252 10.7429 18.0722C10.5505 18.1193 10.4325 18.3133 10.4796 18.5057C10.571 18.8827 10.7674 19.2262 11.0463 19.4957C11.3708 19.7976 11.7994 19.9621 12.2425 19.9549C12.5356 19.954 12.8253 19.8899 13.0914 19.7668C13.4722 19.5888 13.7863 19.2936 13.9874 18.9246C14.193 19.295 14.5117 19.5902 14.8969 19.7668C15.163 19.8899 15.4527 19.954 15.7458 19.9549C16.1889 19.9621 16.6175 19.7975 16.942 19.4957C17.2281 19.2257 17.4303 18.8788 17.5244 18.4968C17.5653 18.308 17.4494 18.1208 17.2624 18.0733L17.2623 18.0734Z" fill="black"/>
</svg>
