<svg width="30" height="30" viewBox="0 0 30 30" fill="none" xmlns="http://www.w3.org/2000/svg">
<path d="M22.9835 22.1195C22.9835 22.5994 22.5994 22.9835 22.1195 22.9835H7.86348C7.38353 22.9835 6.99948 22.5994 6.99948 22.1195V7.86348C6.99948 7.38353 7.38352 6.99948 7.86348 6.99948H13.4795V5.27148H7.86348C6.4234 5.27148 5.27148 6.42344 5.27148 7.86348V22.1195C5.27148 23.5596 6.42344 24.7115 7.86348 24.7115H22.1195C23.5596 24.7115 24.7115 23.5595 24.7115 22.1195V16.5035H22.9835V22.1195Z" fill="white"/>
<path d="M16.5035 5.27153V6.99953H21.7595L14.9675 13.7915L16.1915 15.0155L22.9835 8.22348V13.4795H24.7115V5.27148L16.5035 5.27153Z" fill="white"/>
</svg>
