<svg width="28" height="28" viewBox="0 0 28 28" fill="none" xmlns="http://www.w3.org/2000/svg">
<path d="M10.9249 14.2544H6.17494C5.88993 14.2544 5.69995 14.4453 5.69995 14.7317C5.69995 15.018 5.88991 15.2089 6.17494 15.2089H10.9249C11.2099 15.2089 11.3999 15.0181 11.3999 14.7317C11.3999 14.4454 11.2099 14.2544 10.9249 14.2544Z" fill="white"/>
<path d="M9.97503 16.1638H7.12502C6.84 16.1638 6.65002 16.3547 6.65002 16.6411C6.65002 16.9275 6.83999 17.1183 7.12502 17.1183H9.97503C10.26 17.1183 10.45 16.9275 10.45 16.6411C10.45 16.3547 10.2601 16.1638 9.97503 16.1638Z" fill="white"/>
<path d="M22.3252 13.3001H19.0002V9.95923C19.0002 9.86372 18.9527 9.76836 18.9052 9.67285L16.1502 5.99784V4.23195C16.1502 3.42056 15.5326 2.80005 14.7251 2.80005H8.07514C7.26761 2.80005 6.65004 3.42056 6.65004 4.23195V5.99784L3.8951 9.67285C3.84758 9.76822 3.80005 9.86372 3.80005 9.95923V23.3228C3.80005 23.6092 3.99001 23.8 4.27504 23.8H20.9C21.945 23.8 22.8 22.9409 22.8 21.8909V13.7774C22.8002 13.491 22.6101 13.3001 22.3251 13.3001H22.3252ZM15.4852 22.8458H13.3002V10.4366H18.0501V13.3002H15.6751C15.39 13.3002 15.2001 13.4911 15.2001 13.7775V21.891C15.2001 22.2252 15.295 22.5593 15.4851 22.8457L15.4852 22.8458ZM17.5753 9.48223H13.7752L15.6752 6.95273L17.5753 9.48223ZM7.60029 4.23221C7.60029 3.94583 7.79025 3.75494 8.07528 3.75494H14.7253C15.0103 3.75494 15.2003 3.94581 15.2003 4.23221V5.66411L7.60006 5.66397L7.60029 4.23221ZM7.3628 6.61845H14.7253L12.5877 9.48208L5.22527 9.48222L7.3628 6.61845ZM4.75028 10.4367H12.3505V22.8459H4.75028V10.4367ZM21.8503 18.3594V21.8911C21.8503 22.4161 21.4229 22.8456 20.9004 22.8456H17.1003C16.5778 22.8456 16.1503 22.4161 16.1503 21.8911V18.8366C17.1478 19.1708 18.4303 19.0753 19.2854 18.4547C19.9503 17.9775 21.0902 17.9297 21.8502 18.3594H21.8503ZM21.8503 15.6866V17.3094C20.8528 16.9752 19.5704 17.0707 18.7153 17.6913C18.0028 18.1685 16.9103 18.2163 16.1503 17.7868V14.2547H21.8505L21.8503 15.6866Z" fill="white"/>
</svg>
