<svg width="28" height="28" viewBox="0 0 28 28" fill="none" xmlns="http://www.w3.org/2000/svg">
<path d="M7.47685 5.24034L6.91669 6.02222L10.0701 7.53814C10.3636 7.6783 10.4625 8.04394 10.2847 8.31394L5.81666 15.0423L6.58074 15.5477L11.0523 8.81566C11.2123 8.5741 11.5348 8.50457 11.7797 8.65613C12.54 9.08049 13.2791 9.54145 13.9867 10.0491C13.473 9.37661 12.8343 8.77049 12.0657 8.23393C11.8278 8.06784 11.7669 7.74237 11.9263 7.50189L12.3427 6.87329L11.5755 6.37249L11.2699 6.83281C11.1133 7.06937 10.8011 7.14078 10.5585 7.00187L7.47642 5.24095L7.47685 5.24034ZM24.8596 22.6887C24.8596 22.9845 24.6196 23.2245 24.3238 23.2245H3.53385C2.96949 23.2245 2.79465 22.4609 3.29338 22.2098L7.25182 19.765L10.0099 17.0657C10.1031 16.9738 10.2217 16.9236 10.3427 16.9141L13.6241 16.6439L15.0713 12.3019C14.0337 11.3516 12.8823 10.5307 11.6679 9.8213L7.17711 16.5825C7.01414 16.8286 6.68243 16.8959 6.43603 16.733L4.78011 15.638C4.53386 15.475 4.46636 15.1433 4.62933 14.8969L9.05533 8.23369L5.92205 6.72745C5.59533 6.60417 5.46969 6.20197 5.6758 5.91449L6.88784 4.22357C7.04581 4.00295 7.34848 3.9331 7.58892 4.0706L10.6561 5.82388L10.9786 5.33952C11.1403 5.0953 11.4689 5.02655 11.7149 5.1864L13.3816 6.2736C13.6277 6.43657 13.695 6.76828 13.532 7.01468L13.0984 7.66764C14.3788 8.65732 15.3631 9.89559 15.9775 11.3966L17.8364 10.4455L19.1302 7.57628C19.195 7.43284 19.3152 7.33174 19.4541 7.28706L24.1525 5.68114C24.502 5.56286 24.8589 5.82505 24.8592 6.18786L24.86 22.6886L24.8596 22.6887ZM23.7881 22.1529V6.93614L20.0103 8.22722L18.734 11.0536C18.6859 11.1602 18.6028 11.2521 18.4904 11.3094L16.1234 12.5206L14.5389 17.2734C14.4865 17.493 14.2976 17.6637 14.06 17.6825L10.6192 17.9645L7.95917 20.5677C7.93121 20.5948 7.89995 20.6195 7.86527 20.6409L5.41715 22.153H23.7879L23.7881 22.1529Z" fill="white"/>
</svg>
