<svg width="20" height="20" viewBox="0 0 20 20" fill="none" xmlns="http://www.w3.org/2000/svg">
<path d="M4.4627 17.7448H14.5109C15.0099 17.7442 15.4883 17.5391 15.841 17.1746C16.1939 16.8099 16.3923 16.3157 16.3929 15.8001V4.61129C16.3923 4.09578 16.1939 3.60146 15.841 3.23695C15.4882 2.87243 15.0099 2.66729 14.5109 2.66675H4.4627C3.9637 2.66731 3.48533 2.87244 3.13261 3.23695C2.77974 3.60146 2.58132 4.09578 2.58069 4.61129V15.8001C2.58134 16.3157 2.77974 16.81 3.13261 17.1746C3.48536 17.5391 3.96373 17.7442 4.4627 17.7448ZM14.5109 17.0781H4.4627C4.15811 17.0771 3.86466 16.9598 3.63871 16.7487C3.41286 16.5376 3.27052 16.2477 3.23897 15.9346L7.39778 12.0095L8.93397 13.5968C8.99446 13.6593 9.07654 13.6944 9.16208 13.6944C9.24763 13.6944 9.32971 13.6593 9.39019 13.5968L13.0167 9.84935L15.7477 12.6711L15.7476 15.8003C15.7473 16.1391 15.6169 16.4639 15.385 16.7035C15.1531 16.9431 14.8387 17.0778 14.5108 17.0783L14.5109 17.0781ZM4.4627 3.33358H14.5109C14.8388 3.33391 15.1532 3.46862 15.385 3.70823C15.6169 3.94774 15.7473 4.27252 15.7477 4.61135V11.7282L13.2448 9.14215C13.1843 9.07965 13.1024 9.04449 13.0168 9.04449C12.9313 9.04449 12.8492 9.07965 12.7887 9.14215L9.16216 12.8896L7.63603 11.3128C7.51409 11.1865 7.31773 11.182 7.19051 11.3023L3.22609 15.044V4.61114C3.22641 4.27231 3.35688 3.94751 3.58877 3.70803C3.82055 3.46841 4.13496 3.33369 4.46286 3.33337L4.4627 3.33358Z" fill="#000"/>
<path d="M8.01454 8.81132C8.39301 8.81143 8.75589 8.65608 9.02343 8.37964C9.29096 8.10319 9.4413 7.72818 9.4413 7.33724C9.4413 6.94627 9.29095 6.57127 9.02343 6.29484C8.75589 6.01827 8.39299 5.86304 8.01466 5.86304C7.6363 5.86304 7.27339 6.01839 7.00588 6.29484C6.73835 6.57129 6.58801 6.94629 6.58801 7.33724C6.58844 7.72809 6.7389 8.10275 7.00632 8.37909C7.27375 8.65555 7.63643 8.81089 8.01457 8.81135L8.01454 8.81132ZM8.01454 6.52964C8.22181 6.52964 8.42066 6.61468 8.56721 6.76613C8.71377 6.91758 8.79607 7.12293 8.79618 7.3371C8.79618 7.55128 8.71388 7.75665 8.56731 7.90807C8.42075 8.0595 8.22203 8.14468 8.01476 8.14468C7.8075 8.14468 7.60864 8.05963 7.4621 7.90819C7.31553 7.75685 7.23324 7.55139 7.23324 7.33721C7.23345 7.12315 7.31586 6.9179 7.46232 6.76644C7.60878 6.6151 7.80739 6.52995 8.01457 6.52961L8.01454 6.52964Z" fill="#000"/>
</svg>
