<svg width="28" height="28" viewBox="0 0 28 28" fill="none" xmlns="http://www.w3.org/2000/svg">
<path d="M18.6257 20.7738C18.3436 20.7738 18.0644 20.818 17.7983 20.9039C17.2507 19.768 16.1702 18.9888 14.9164 18.8258V12.1862C15.1833 12.219 15.4892 12.2425 15.825 12.2425C17.1014 12.2425 18.7872 11.9075 20.2042 10.4904C22.3136 8.38106 22.0256 5.67722 21.8039 4.61243C21.7642 4.42165 21.6148 4.27243 21.4241 4.23274C20.3595 4.01102 17.6555 3.7229 15.5461 5.83226C13.6576 7.72054 13.6907 10.0847 13.8775 11.3231C13.3335 10.4853 12.5343 9.63634 11.3697 9.08478C8.92729 7.92806 6.99405 9.05462 6.27605 9.59258C6.11636 9.71226 6.04511 9.91711 6.09636 10.1102C6.35324 11.0809 7.20872 13.4604 9.59572 14.591C10.3679 14.9566 11.0892 15.0943 11.7373 15.0941C12.6281 15.0941 13.3801 14.8343 13.9364 14.5504V18.8256C12.6826 18.9882 11.6022 19.7676 11.0543 20.9039C10.7879 20.8181 10.5081 20.7737 10.2257 20.7737C8.7404 20.7737 7.53212 21.9828 7.53212 23.4687C7.53212 23.7393 7.7515 23.9587 8.02212 23.9587H20.8305C21.1011 23.9587 21.3205 23.7393 21.3205 23.4687C21.3204 21.9825 20.1114 20.7735 18.6254 20.7735L18.6257 20.7738ZM16.2391 6.52538C17.8286 4.93602 19.8475 4.97318 20.9023 5.1343C21.0634 6.18882 21.1009 8.2079 19.5112 9.7975C18.1223 11.1864 16.4057 11.3334 15.2908 11.2406L16.2902 10.2413H17.8541C18.0474 10.2413 18.2041 10.0845 18.2041 9.89126C18.2041 9.69798 18.0474 9.54126 17.8541 9.54126H16.9902L18.4045 8.1269H19.7887C19.982 8.1269 20.1387 7.97018 20.1387 7.7769C20.1387 7.58362 19.982 7.4269 19.7887 7.4269H19.1045L19.7781 6.7533C19.9149 6.61674 19.9149 6.39502 19.7781 6.25846C19.6414 6.12174 19.4199 6.12174 19.2833 6.25846L17.5639 7.97782V7.1739C17.5639 6.98062 17.4072 6.8239 17.2139 6.8239C17.0207 6.8239 16.8639 6.98062 16.8639 7.1739V8.67782L14.7961 10.7456C14.7036 9.6311 14.8504 7.91438 16.2391 6.52562V6.52538ZM10.0151 13.7054C8.22698 12.8585 7.44757 11.1474 7.13945 10.1866C7.92397 9.68754 9.27742 9.1785 10.9504 9.97068C12.4327 10.6727 13.2204 11.9677 13.6224 12.9377L12.0669 12.201L11.6447 10.9784C11.5818 10.7957 11.3825 10.6984 11.1996 10.7618C11.0169 10.8249 10.92 11.0241 10.983 11.2068L11.1816 11.7816L9.4658 10.969C9.29143 10.8862 9.08252 10.9607 8.99972 11.1354C8.91691 11.3101 8.99144 11.5187 9.16613 11.6015L10.1051 12.0463L9.56365 12.3735C9.39818 12.4735 9.34506 12.6887 9.44506 12.8542C9.51084 12.9629 9.62631 13.0232 9.7449 13.0232C9.80647 13.0232 9.86897 13.0068 9.92568 12.9728L10.8638 12.4059L13.5226 13.6651C12.7154 14.0907 11.4896 14.4037 10.015 13.7054L10.0151 13.7054ZM8.58322 22.979C8.79431 22.2713 9.45085 21.754 10.2256 21.754C10.5253 21.754 10.8201 21.8323 11.0781 21.9801C11.2068 22.0537 11.3616 22.0655 11.4999 22.0116C11.6379 21.9577 11.7443 21.8444 11.789 21.703C12.1545 20.5487 13.2142 19.773 14.4256 19.773C15.6378 19.773 16.6979 20.5487 17.0635 21.703C17.1084 21.8444 17.2146 21.9579 17.3527 22.0116C17.4907 22.0655 17.6459 22.054 17.7745 21.9801C18.0323 21.8321 18.3267 21.754 18.6255 21.754C19.401 21.754 20.0579 22.2713 20.2691 22.979H8.58322Z" fill="white"/>
</svg>
