<svg width="28" height="28" viewBox="0 0 28 28" fill="none" xmlns="http://www.w3.org/2000/svg">
<path d="M22.8534 12.12H22.3867V10.72C22.3867 10.5962 22.3374 10.4776 22.2499 10.39C22.1624 10.3025 22.0437 10.2534 21.9199 10.2534H18.1867C17.929 10.2534 17.7199 10.4623 17.7199 10.72V12.12H17.2534C16.882 12.12 16.5259 12.2675 16.2634 12.5301C16.0009 12.7926 15.8534 13.1487 15.8534 13.52V21.92C15.8534 22.2914 16.0009 22.6475 16.2634 22.91C16.5259 23.1725 16.882 23.32 17.2534 23.32H17.7201V23.7867H17.72C17.72 24.0444 17.929 24.2534 18.1867 24.2534C18.4443 24.2534 18.6534 24.0444 18.6534 23.7867V23.32H21.4534V23.7867C21.4534 24.0444 21.6623 24.2534 21.9199 24.2534C22.1777 24.2534 22.3867 24.0444 22.3867 23.7867V23.32H22.8534C23.2246 23.32 23.5807 23.1725 23.8432 22.91C24.1059 22.6475 24.2534 22.2914 24.2534 21.92V13.52C24.2534 13.1487 24.1059 12.7926 23.8432 12.5301C23.5807 12.2675 23.2246 12.12 22.8534 12.12L22.8534 12.12ZM18.6534 11.1867H21.4534V12.12H18.6534V11.1867ZM23.3198 21.9199C23.3198 22.0437 23.2707 22.1624 23.1832 22.2499C23.0955 22.3374 22.977 22.3866 22.8532 22.3866H17.2532C16.9954 22.3866 16.7865 22.1777 16.7865 21.9199V13.5199C16.7865 13.2622 16.9954 13.0533 17.2532 13.0533H22.8532C22.977 13.0533 23.0955 13.1024 23.1832 13.1899C23.2707 13.2776 23.3198 13.3962 23.3198 13.5199V21.9199Z" fill="white"/>
<path d="M21.9199 17.2534H18.1866C17.9289 17.2534 17.7198 17.4623 17.7198 17.72V20.52C17.7198 20.6437 17.7691 20.7625 17.8566 20.85C17.9441 20.9375 18.0628 20.9867 18.1866 20.9867H21.9199C22.0436 20.9867 22.1624 20.9375 22.2499 20.85C22.3374 20.7625 22.3866 20.6437 22.3866 20.52V17.72C22.3866 17.5962 22.3374 17.4776 22.2499 17.39C22.1624 17.3025 22.0436 17.2534 21.9199 17.2534V17.2534ZM21.4531 20.0534H18.6533V18.1867H21.4533L21.4531 20.0534Z" fill="white"/>
<path d="M21.9199 14.9199H18.1866C17.9289 14.9199 17.7198 15.129 17.7198 15.3866C17.7198 15.6443 17.9289 15.8533 18.1866 15.8533H21.9199C22.1777 15.8533 22.3866 15.6443 22.3866 15.3866C22.3866 15.129 22.1777 14.9199 21.9199 14.9199Z" fill="white"/>
<path d="M10.7198 8.85352H6.05341C5.43449 8.85352 4.84105 9.0993 4.40341 9.53695C3.96589 9.97447 3.71997 10.5679 3.71997 11.1868V18.6536C3.71997 18.7773 3.76919 18.8959 3.85669 18.9836C3.94419 19.0711 4.06294 19.1201 4.18669 19.1201H5.58669V22.8536C5.58669 23.2248 5.73419 23.5809 5.99669 23.8434C6.25935 24.1061 6.61546 24.2536 6.9867 24.2536H9.7867C10.1579 24.2536 10.5141 24.1061 10.7767 23.8434C11.0392 23.5809 11.1867 23.2248 11.1867 22.8536V19.1201H12.5867C12.7105 19.1201 12.8292 19.0711 12.9167 18.9836C13.0042 18.8959 13.0534 18.7773 13.0534 18.6536V11.1868C13.0534 10.5679 12.8075 9.97443 12.37 9.53695C11.9323 9.09932 11.3389 8.85352 10.72 8.85352H10.7198ZM12.1198 18.1867H11.1865V13.9867C11.1865 13.7291 10.9776 13.52 10.7198 13.52C10.4622 13.52 10.2533 13.7291 10.2533 13.9867V22.8535C10.2533 22.9772 10.204 23.0958 10.1165 23.1835C10.029 23.271 9.91029 23.3201 9.78654 23.3201H8.85326V17.2537C8.85326 16.9959 8.64419 16.7869 8.38654 16.7869C8.12888 16.7869 7.91982 16.9959 7.91982 17.2537V23.3201H6.98654C6.72888 23.3201 6.51982 23.1111 6.51982 22.8535V13.9867C6.51982 13.7291 6.31091 13.52 6.05325 13.52C5.79544 13.52 5.58653 13.7291 5.58653 13.9867V18.1867H4.65325V11.1867C4.65325 10.8155 4.80075 10.4594 5.06325 10.1967C5.32575 9.93422 5.68185 9.78672 6.05325 9.78672H10.7197C11.0911 9.78672 11.4472 9.93422 11.7097 10.1967C11.9722 10.4594 12.1197 10.8155 12.1197 11.1867L12.1198 18.1867Z" fill="white"/>
<path d="M8.38663 8.38669C9.00555 8.38669 9.599 8.14091 10.0365 7.70325C10.4741 7.26573 10.7199 6.67217 10.7199 6.05341C10.7199 5.43449 10.4741 4.84105 10.0365 4.40341C9.59896 3.96589 9.00555 3.71997 8.38663 3.71997C7.76771 3.71997 7.17427 3.96591 6.73679 4.40341C6.29915 4.84105 6.05334 5.43449 6.05334 6.05341C6.05334 6.67217 6.29913 7.26577 6.73679 7.70325C7.17431 8.14089 7.76771 8.38669 8.38663 8.38669V8.38669ZM8.38663 4.65341C8.75788 4.65341 9.11399 4.80091 9.37664 5.06341C9.63914 5.32591 9.78664 5.68201 9.78664 6.05341C9.78664 6.42466 9.63914 6.78077 9.37664 7.04325C9.11398 7.30591 8.75787 7.45341 8.38663 7.45341C8.01539 7.45341 7.65927 7.30591 7.39663 7.04325C7.13413 6.78075 6.98663 6.42465 6.98663 6.05341C6.98663 5.682 7.13413 5.32589 7.39663 5.06341C7.65929 4.80091 8.01539 4.65341 8.38663 4.65341Z" fill="white"/>
</svg>
